<?xml version="1.0" encoding="UTF-8" standalone="no"?>
<!-- Created with Inkscape (http://www.inkscape.org/) -->

<svg
   xmlns:dc="http://purl.org/dc/elements/1.1/"
   xmlns:cc="http://creativecommons.org/ns#"
   xmlns:rdf="http://www.w3.org/1999/02/22-rdf-syntax-ns#"
   xmlns:svg="http://www.w3.org/2000/svg"
   xmlns="http://www.w3.org/2000/svg"
   xmlns:sodipodi="http://sodipodi.sourceforge.net/DTD/sodipodi-0.dtd"
   xmlns:inkscape="http://www.inkscape.org/namespaces/inkscape"
   width="272"
   height="136"
   viewBox="0 0 71.966666 35.983334"
   version="1.1"
   id="svg8"
   inkscape:version="0.92.3 (2405546, 2018-03-11)"
   sodipodi:docname="ArmorDisplay.svg"
   inkscape:export-filename="/media/siege/BigLinuxData/Documents/Transcendence/silverfish/ArmorDisplayBase.png"
   inkscape:export-xdpi="96"
   inkscape:export-ydpi="96">
  <defs
     id="defs2" />
  <sodipodi:namedview
     id="base"
     pagecolor="#ffffff"
     bordercolor="#666666"
     borderopacity="1.0"
     inkscape:pageopacity="0.0"
     inkscape:pageshadow="2"
     inkscape:zoom="2.8"
     inkscape:cx="176.11762"
     inkscape:cy="35.275871"
     inkscape:document-units="mm"
     inkscape:current-layer="layer1"
     showgrid="false"
     units="px"
     inkscape:window-width="2530"
     inkscape:window-height="1384"
     inkscape:window-x="30"
     inkscape:window-y="0"
     inkscape:window-maximized="1">
    <inkscape:grid
       type="xygrid"
       id="grid815" />
  </sodipodi:namedview>
  <metadata
     id="metadata5">
    <rdf:RDF>
      <cc:Work
         rdf:about="">
        <dc:format>image/svg+xml</dc:format>
        <dc:type
           rdf:resource="http://purl.org/dc/dcmitype/StillImage" />
        <dc:title></dc:title>
      </cc:Work>
    </rdf:RDF>
  </metadata>
  <g
     inkscape:label="Layer 1"
     inkscape:groupmode="layer"
     id="layer1"
     transform="translate(0,-261.01665)">
    <path
       style="fill:#002edf;fill-opacity:0.94117647;fill-rule:evenodd;stroke:none;stroke-width:0.99999994px;stroke-linecap:butt;stroke-linejoin:miter;stroke-opacity:1"
       d="m 71.160156,16.09375 v 9.996094 c 4.832232,0.382345 11.11509,2.395699 16.554688,13 1.838415,3.583925 3.429128,8.745289 4.746094,14.521484 L 103.2168,52.117188 C 101.70585,44.639366 99.713944,37.807333 97.173828,32.855469 90.047171,18.962315 78.298424,16.517296 71.160156,16.09375 Z m -8.302734,0.134766 C 55.659514,16.94554 45.093053,19.987319 38.492188,32.855469 35.953189,37.805154 33.961884,44.63347 32.451172,52.107422 L 43.587891,53.65625 C 44.907035,47.86053 46.502643,42.682824 48.345703,39.089844 53.047315,29.924218 58.376405,27.185086 62.857422,26.361328 Z M 31.025391,60.292969 c -2.277764,15.174559 -2.787558,31.205198 -1.886719,39.179687 0.134344,1.189254 0.434952,2.292624 0.867187,3.324224 l 9.97461,-7.291021 C 38.907162,89.22782 39.738201,75.02786 41.978516,61.816406 Z m 73.615229,0.0098 -10.566401,1.46875 c 2.260902,13.314342 3.096993,27.665832 1.986328,33.878907 l 9.638673,7.044924 c 0.40951,-1.00308 0.69812,-2.07179 0.82812,-3.222659 0.90066,-7.972815 0.38982,-23.998185 -1.88672,-39.169922 z m -59.560542,41.761711 -9.625,7.03711 c 7.971498,5.43841 21.825779,6.88823 32.378906,6.86719 10.593681,0.0221 24.512777,-1.44117 32.468746,-6.93164 l -9.443355,-6.9043 C 83.766999,105.99589 71.650656,106 68.03125,106 c -3.640457,0 -15.876291,-0.005 -22.951172,-3.93555 z"
       transform="matrix(0.26458333,0,0,0.26458333,0,261.01665)"
       id="path1124"
       inkscape:connector-curvature="0" />
    <path
       id="path1122"
       style="fill:#010e43;fill-opacity:1;fill-rule:evenodd;stroke:none;stroke-width:0.26458332px;stroke-linecap:butt;stroke-linejoin:miter;stroke-opacity:1"
       d="m 45.591247,287.19622 c -0.581138,-2.90569 0.456609,-12.73317 2.407574,-16.5365 1.950964,-3.80334 4.540101,-3.80334 5.984128,-3.80334 1.444028,0 4.033165,0 5.984129,3.80334 1.950965,3.80333 2.988712,13.63081 2.407574,16.5365 -0.581139,2.90569 -6.947675,2.90569 -8.391703,2.90569 -1.444027,0 -7.810563,0 -8.391702,-2.90569 z"
       inkscape:connector-curvature="0"
       sodipodi:nodetypes="sscsscs" />
  </g>
</svg>
